<svg width="20" height="20" viewBox="0 0 20 20" fill="none" xmlns="http://www.w3.org/2000/svg">
<path d="M15.9153 8.6855C12.6919 6.80998 7.37493 6.63756 4.29777 7.55255C3.80349 7.69943 3.281 7.4262 3.13135 6.94203C2.9816 6.4576 3.26022 5.94596 3.75468 5.79882C7.28716 4.74835 13.1591 4.95121 16.87 7.10936C17.3146 7.36794 17.4602 7.93029 17.1968 8.36497C16.9331 8.80044 16.3587 8.94408 15.9153 8.6855ZM15.8097 11.4633C15.5836 11.8229 15.1037 11.9356 14.7372 11.7149C12.05 10.0965 7.95205 9.62761 4.7727 10.5731C4.36046 10.6951 3.92493 10.4675 3.79973 10.0642C3.74004 9.87036 3.76125 9.66122 3.85871 9.48266C3.95616 9.3041 4.12192 9.17069 4.31962 9.11167C7.95151 8.03181 12.4666 8.55476 15.5532 10.4132C15.9197 10.6343 16.035 11.1046 15.8097 11.4633ZM14.5861 14.1311C14.5435 14.1996 14.4875 14.2592 14.4214 14.3066C14.3552 14.3539 14.2802 14.388 14.2006 14.4068C14.121 14.4257 14.0384 14.429 13.9575 14.4166C13.8765 14.4041 13.7989 14.3762 13.7291 14.3343C11.3808 12.9282 8.4251 12.6106 4.9442 13.3896C4.86445 13.4075 4.78188 13.4098 4.70121 13.3964C4.62054 13.383 4.54336 13.3541 4.47408 13.3115C4.40479 13.2689 4.34475 13.2133 4.2974 13.1479C4.25004 13.0826 4.2163 13.0087 4.19809 12.9305C4.17975 12.8524 4.17733 12.7714 4.19097 12.6923C4.20461 12.6133 4.23404 12.5376 4.27757 12.4697C4.32111 12.4017 4.37789 12.3429 4.44467 12.2965C4.51145 12.2501 4.58692 12.2171 4.66675 12.1993C8.47597 11.3462 11.7434 11.7134 14.3793 13.2914C14.4491 13.3332 14.5099 13.3881 14.5581 13.4529C14.6063 13.5177 14.6411 13.5912 14.6603 13.6692C14.6795 13.7472 14.6828 13.8281 14.6701 13.9074C14.6574 13.9866 14.6288 14.0626 14.5861 14.1311ZM9.99982 0C4.47724 0 0 4.38631 0 9.79713C0 15.2085 4.47724 19.5946 9.99991 19.5946C15.5228 19.5946 20 15.2085 20 9.79713C20 4.3864 15.5228 0 9.99982 0Z" fill="white" fill-opacity="0.68"/>
</svg>
